<?xml version="1.0" encoding="utf-8"?>
<!-- Generator: Adobe Illustrator 25.0.0, SVG Export Plug-In . SVG Version: 6.00 Build 0)  -->
<svg version="1.1" id="Layer_1" xmlns="http://www.w3.org/2000/svg" xmlns:xlink="http://www.w3.org/1999/xlink" x="0px" y="0px"
	 viewBox="0 0 360.8 312.7" style="enable-background:new 0 0 360.8 312.7;" xml:space="preserve">
<style type="text/css">
	.st0{fill:#1D1D1B;}
	.st1{fill:#262523;}
	.st2{fill:none;stroke:#FFFFFF;stroke-width:5;stroke-miterlimit:10;}
	.st3{fill:#FFFFFF;}
	.st4{fill:none;stroke:#000000;stroke-width:20;stroke-miterlimit:10;}
	.st5{fill:none;stroke:#1D1D1B;stroke-width:10;stroke-miterlimit:10;}
	.st6{fill:none;stroke:#262523;stroke-miterlimit:10;}
	.st7{font-family:'ClarityCity-Bold';}
	.st8{font-size:124.6187px;}
</style>
<path class="st0" d="M3908.1,1023.6h-273.7c-32,0-57.9-25.9-57.9-57.9V732.2c0-32,25.9-57.9,57.9-57.9h273.7
	c32,0,57.9,25.9,57.9,57.9v233.4C3966,997.6,3940,1023.6,3908.1,1023.6z"/>
<text transform="matrix(1 0 0 1 4274.7646 1216.0627)" class="st0 st7 st8">WEB</text>
<text transform="matrix(1 0 0 1 4171.625 1109.1124)" class="st0 st7 st8">WEB</text>
<g>
	<path class="st1" d="M-640.5,183.5h12.8l19.3,59.8l19.6-59.8h12.7l19.6,59.8l19.3-59.8h12.8l-25.8,78.5h-11.5l-20.7-62.4
		l-20.8,62.4h-11.5L-640.5,183.5z"/>
	<path class="st1" d="M-503.4,194.3v22.4h41.5v10.7h-41.5v23.9h46V262H-515v-78.4h57.6v10.7H-503.4z"/>
	<path class="st1" d="M-445.1,183.5h37.2c4.3,0,8.2,0.8,11.5,2.5s6,4,7.9,7s2.9,6.3,2.9,10c0,4-0.9,7.3-2.8,10.1s-4.6,5.2-8.3,7.2
		c4.6,2.3,8.1,5.2,10.6,8.6c2.5,3.5,3.7,7.3,3.7,11.6c0,4.1-1,7.8-3.1,11s-4.9,5.8-8.6,7.6s-7.8,2.7-12.4,2.7h-38.6L-445.1,183.5
		L-445.1,183.5z M-410.8,216.2c4,0,7.2-1,9.7-3.1s3.8-4.8,3.8-8c0-3.3-1.3-6-3.8-8.1s-5.7-3.2-9.7-3.2h-22.7v22.5L-410.8,216.2
		L-410.8,216.2z M-409,251.8c4.3,0,7.9-1.2,10.7-3.6c2.8-2.4,4.2-5.5,4.2-9.3s-1.4-6.9-4.2-9.3c-2.8-2.4-6.3-3.6-10.7-3.6h-24.5
		v25.8L-409,251.8L-409,251.8z"/>
</g>
<text transform="matrix(1 0 0 1 4354.5947 1324.795)" class="st0 st7 st8">WEB</text>
<line class="st2" x1="3552.6" y1="736.4" x2="3992.3" y2="736.4"/>
<circle class="st3" cx="3855.2" cy="705.8" r="6.5"/>
<circle class="st3" cx="3888.4" cy="705.8" r="6.5"/>
<circle class="st3" cx="3921.6" cy="705.8" r="6.5"/>
<path class="st4" d="M4550.3,1355.2h-287.8c-25.6,0-46.4-20.8-46.4-46.4V1021c0-25.6,20.8-46.4,46.4-46.4h287.8
	c25.6,0,46.4,20.8,46.4,46.4v287.8C4596.7,1334.4,4576,1355.2,4550.3,1355.2z"/>
<path class="st4" d="M3908.1,1383.6h-271.3c-30.2,0-54.6-24.5-54.6-54.6v-139.8c0-30.2,24.5-54.6,54.6-54.6h271.3
	c30.2,0,54.6,24.5,54.6,54.6V1329C3962.8,1359.2,3938.3,1383.6,3908.1,1383.6z"/>
<ellipse class="st4" cx="4398.3" cy="725.6" rx="305.6" ry="123.3"/>
<rect x="3719.2" y="1383.6" class="st4" width="107.6" height="85"/>
<rect x="3676.5" y="1462.3" width="191.9" height="16.1"/>
<path class="st4" d="M3900.6,1353.2h-256.4c-15.2,0-27.5-12.3-27.5-27.5v-133.3c0-15.2,12.3-27.5,27.5-27.5h256.4
	c15.2,0,27.5,12.3,27.5,27.5v133.3C3928.1,1340.9,3915.8,1353.2,3900.6,1353.2z"/>
<path class="st1" d="M-329.2,312.7H-690V0h360.8V312.7z M-680,302.7h340.8V10H-680V302.7z"/>
<rect x="-685" y="43.1" class="st1" width="350.8" height="10"/>
<circle class="st1" cx="-359.6" cy="26.7" r="4.7"/>
<circle class="st1" cx="-382.2" cy="26.7" r="4.7"/>
<circle class="st1" cx="-404.8" cy="26.7" r="4.7"/>
<rect x="-643.9" y="88.8" class="st1" width="255.6" height="8"/>
<rect x="-643.9" y="108.9" class="st1" width="208.5" height="8"/>
<rect x="-643.9" y="129.1" class="st1" width="237.6" height="8"/>
<rect x="4890" y="1426.1" class="st5" width="350.8" height="350.8"/>
<line class="st5" x1="4890" y1="1469.2" x2="5240.8" y2="1469.2"/>
<circle class="st0" cx="5215.4" cy="1447.8" r="4.7"/>
<circle class="st0" cx="5192.8" cy="1447.8" r="4.7"/>
<circle class="st0" cx="5170.2" cy="1447.8" r="4.7"/>
<rect x="4931.1" y="1530.1" class="st0" width="255.6" height="8"/>
<rect x="4931.1" y="1550.2" class="st0" width="208.5" height="8"/>
<rect x="4931.1" y="1570.3" class="st0" width="237.6" height="8"/>
<rect x="4931.1" y="1628.5" class="st0" width="127.8" height="88.9"/>
<ellipse class="st6" cx="371" cy="115.4" rx="370" ry="115.4"/>
<ellipse class="st6" cx="371" cy="115.4" rx="352.2" ry="100.6"/>
<text transform="matrix(1 0 0 1 211.4678 162.9503)" class="st0 st7 st8">WEB</text>
<circle class="st1" cx="584.6" cy="-307.3" r="177.7"/>
</svg>
